<svg width="130" height="130" viewBox="0 0 130 130" fill="none" xmlns="http://www.w3.org/2000/svg">
<rect width="130" height="130" fill="#5674D6"/>
<path d="M77.3333 38.8333V90.1667C77.3333 92.7048 78.086 95.186 79.4961 97.2965C80.9063 99.4069 82.9106 101.052 85.2556 102.023C87.6005 102.994 90.1809 103.249 92.6703 102.753C95.1597 102.258 97.4464 101.036 99.2412 99.2412C101.036 97.4464 102.258 95.1597 102.753 92.6703C103.249 90.1809 102.994 87.6005 102.023 85.2556C101.052 82.9106 99.4069 80.9063 97.2965 79.4961C95.186 78.086 92.7048 77.3333 90.1667 77.3333H38.8333C36.2951 77.3333 33.8139 78.086 31.7035 79.4961C29.5931 80.9063 27.9482 82.9106 26.9769 85.2556C26.0056 87.6005 25.7514 90.1809 26.2466 92.6703C26.7418 95.1597 27.964 97.4464 29.7588 99.2412C31.5536 101.036 33.8403 102.258 36.3297 102.753C38.8191 103.249 41.3995 102.994 43.7444 102.023C46.0894 101.052 48.0937 99.4069 49.5039 97.2965C50.914 95.186 51.6667 92.7048 51.6667 90.1667V38.8333C51.6667 36.2951 50.914 33.8139 49.5039 31.7035C48.0937 29.5931 46.0894 27.9482 43.7444 26.9769C41.3995 26.0056 38.8191 25.7514 36.3297 26.2466C33.8403 26.7418 31.5536 27.964 29.7588 29.7588C27.964 31.5536 26.7418 33.8403 26.2466 36.3297C25.7514 38.8191 26.0056 41.3995 26.9769 43.7444C27.9482 46.0894 29.5931 48.0937 31.7035 49.5039C33.8139 50.914 36.2951 51.6667 38.8333 51.6667H90.1667C92.7048 51.6667 95.186 50.914 97.2965 49.5039C99.4069 48.0937 101.052 46.0894 102.023 43.7444C102.994 41.3995 103.249 38.8191 102.753 36.3297C102.258 33.8403 101.036 31.5536 99.2412 29.7588C97.4464 27.964 95.1597 26.7418 92.6703 26.2466C90.1809 25.7514 87.6005 26.0056 85.2556 26.9769C82.9106 27.9482 80.9063 29.5931 79.4961 31.7035C78.086 33.8139 77.3333 36.2951 77.3333 38.8333Z" stroke="white" stroke-width="4" stroke-linecap="round" stroke-linejoin="round"/>
</svg>
